HIERARCHY
ROOT Hips
{
  OFFSET -187.679 86.5976 -156.378
  CHANNELS 6 Xposition Yposition Zposition Zrotation Xrotation Yrotation
  JOINT LeftUpLeg
  {
    OFFSET 8.64259 1.95398 -2.38835
    CHANNELS 3 Zrotation Xrotation Yrotation
    JOINT LeftLeg
    {
      OFFSET 43.7702 0 0
      CHANNELS 3 Zrotation Xrotation Yrotation
      JOINT LeftFoot
      {
        OFFSET 40.6238 0 0
        CHANNELS 3 Zrotation Xrotation Yrotation
        JOINT LeftToeBase
        {
          OFFSET 12.7242 0 0
          CHANNELS 3 Zrotation Xrotation Yrotation
          End Site
          {
            OFFSET 0 0 0
          }
        }
      }
    }
  }
  JOINT RightUpLeg
  {
    OFFSET -8.2249 1.95398 -2.59336
    CHANNELS 3 Zrotation Xrotation Yrotation
    JOINT RightLeg
    {
      OFFSET 43.5653 0 0
      CHANNELS 3 Zrotation Xrotation Yrotation
      JOINT RightFoot
      {
        OFFSET 40.6238 0 0
        CHANNELS 3 Zrotation Xrotation Yrotation
        JOINT RightToeBase
        {
          OFFSET 12.7242 0 0
          CHANNELS 3 Zrotation Xrotation Yrotation
          End Site
          {
            OFFSET 0 0 0
          }
        }
      }
    }
  }
  JOINT Spine
  {
    OFFSET 0.165834 0.87714 6.61349
    CHANNELS 3 Zrotation Xrotation Yrotation
    JOINT Spine1
    {
      OFFSET 7.38963 1.71661e-005 0
      CHANNELS 3 Zrotation Xrotation Yrotation
      JOINT Spine2
      {
        OFFSET 11.9445 1.14441e-005 0
        CHANNELS 3 Zrotation Xrotation Yrotation
        JOINT Spine3
        {
          OFFSET 14.7254 4.19617e-005 0
          CHANNELS 3 Zrotation Xrotation Yrotation
          JOINT Spine4
          {
            OFFSET 10.9679 0 0
            CHANNELS 3 Zrotation Xrotation Yrotation
            JOINT RightShoulder
            {
              OFFSET 2.46616 -1.6653 3.69651
              CHANNELS 3 Zrotation Xrotation Yrotation
              JOINT RightArm
              {
                OFFSET 13.0012 0 0
                CHANNELS 3 Zrotation Xrotation Yrotation
                JOINT RightForeArm
                {
                  OFFSET 28.7848 1.52588e-005 0
                  CHANNELS 3 Zrotation Xrotation Yrotation
                  JOINT RightHand
                  {
                    OFFSET 26.5688 1.52588e-005 0
                    CHANNELS 3 Zrotation Xrotation Yrotation
                    End Site
                    {
                      OFFSET 0 0 0
                    }
                  }
                }
              }
            }
            JOINT LeftShoulder
            {
              OFFSET 2.38034 -1.29275 -3.7523
              CHANNELS 3 Zrotation Xrotation Yrotation
              JOINT LeftArm
              {
                OFFSET 16.3182 6.10352e-005 0
                CHANNELS 3 Zrotation Xrotation Yrotation
                JOINT LeftForeArm
                {
                  OFFSET 27.0901 0 0
                  CHANNELS 3 Zrotation Xrotation Yrotation
                  JOINT LeftHand
                  {
                    OFFSET 24.5451 1.52588e-005 0
                    CHANNELS 3 Zrotation Xrotation Yrotation
                    End Site
                    {
                      OFFSET 0 0 0
                    }
                  }
                }
              }
            }
            JOINT Neck
            {
              OFFSET 5.0226 -0.0266342 0
              CHANNELS 3 Zrotation Xrotation Yrotation
              JOINT Head
              {
                OFFSET 6.69363 2.86102e-005 0
                CHANNELS 3 Zrotation Xrotation Yrotation
                End Site
                {
                  OFFSET 0 0 0
                }
              }
            }
          }
        }
      }
    }
  }
}
MOTION
Frames:	11
Frame Time:	0.0416667
-53.235 81.6504 14.7254 -82.0753 8.26933 -106.109 -175.243 7.53719 97.0144 -81.9174 38.3015 14.183 58.9557 0.156454 2.36952 34.9696 3.48465 -4.60518 167.532 23.8092 104.351 -57.3906 13.8046 12.9404 100.18 -12.7268 2.16557 13.4622 -5.66164 7.24478 0.412056 7.96758 -88.5871 10.9135 1.4739 2.67182 -0.759221 1.59002 2.60441 -23.274 0.60319 2.99098 -3.26134 0.603182 2.99097 87.8933 -41.7745 -106.266 24.1328 -30.4788 11.6761 -41.1827 16.2776 -92.2075 -5.93542 -0.243906 -0.410501 -89.0096 -45.5588 79.5058 10.0741 -10.8192 -11.2807 31.63 -23.4631 -122.121 1.45926 0.062841 0.286554 25.8354 -4.56294 6.83858 4.78352 -7.429 -9.44431 
-57.4863 80.8241 14.923 -82.1082 13.4639 -105.513 -175.737 15.9605 97.9293 -93.5218 25.4845 10.789 61.4747 1.47258 3.83608 32.9197 2.65303 -3.99741 169.168 19.4376 105.296 -58.3067 13.04 10.3992 102.948 -14.2414 1.92445 12.4418 -5.38921 6.08108 0.866353 8.17906 -88.9405 10.4947 2.21195 1.90829 -1.17556 2.29378 1.80909 -23.7078 1.53636 2.48467 -3.69518 1.53635 2.48466 88.9435 -41.8608 -104.478 17.8381 -25.4208 1.32834 -40.238 16.3204 -95.3875 -6.61365 -0.332995 0.946783 -90.1917 -48.723 78.3863 7.88061 -1.57938 -2.72778 34.9334 -24.6559 -117.463 0.237477 -0.000699426 -0.413681 26.2829 -5.74022 9.40458 5.75281 -9.49373 -8.38924 
-61.7788 80.2604 15.0096 -80.2473 19.8386 -104.886 -175.91 27.0095 99.4741 -104.201 17.6233 8.81869 63.7458 2.74312 6.33756 28.5993 1.91626 -6.28904 171.651 15.9635 105.897 -58.3901 13.1015 8.13824 104.221 -14.3176 4.09866 16.9115 -4.57419 6.61496 1.31276 8.33124 -89.2864 10.1969 2.94139 1.16711 -1.47118 2.98993 1.03642 -24.0221 2.45464 1.99747 -4.00943 2.45465 1.99747 89.5474 -41.2153 -103.652 11.5409 -18.1466 -10.6833 -41.7982 16.3562 -98.9661 -5.74418 -0.327621 1.81264 -91.1834 -50.9753 77.4203 2.82131 3.45629 8.57978 37.5935 -25.358 -114.136 -2.13229 -0.0800972 -1.0149 29.5425 -5.30156 10.9707 5.89899 -9.8205 -6.90127 
-66.4786 80.0394 14.7466 -78.1314 25.3965 -106.612 -175.92 38.0028 98.7948 -111.782 19.1069 8.21094 66.6722 4.78428 11.2937 24.3217 1.00111 -7.58429 173.286 11.8939 103.652 -56.8735 12.8847 5.98239 106.667 -14.7316 5.89645 20.6563 -4.39381 8.43456 1.62362 8.45603 -89.2348 9.94381 3.58353 1.22601 -1.72263 3.63401 1.06691 -24.2838 3.04934 2.24701 -4.27114 3.04935 2.24701 89.9071 -40.0905 -103.369 9.04516 -9.89916 -21.2401 -39.7645 15.5147 -102.244 -5.2211 -0.295891 1.80851 -90.6762 -51.1094 78.1975 -4.40997 4.31091 20.6172 40.1858 -26.8338 -113.631 -1.56661 -0.064323 -0.940435 32.0441 -5.09812 11.167 5.97957 -9.94257 -7.06739 
-71.6547 80.4847 14.051 -75.8705 29.0637 -108.999 -176.507 48.2192 97.632 -113.755 20.3343 7.92279 69.5117 6.75897 11.9716 26.7194 2.16776 -8.90934 173.366 7.54873 99.8234 -53.4473 8.34694 4.46517 105.986 -15.001 4.93852 22.1868 -3.78723 7.76238 1.89254 8.46522 -89.0229 9.91547 4.21562 1.59659 -1.74939 4.28176 1.40922 -24.3182 3.54086 2.79072 -4.30553 3.54087 2.79072 89.484 -38.7758 -104.503 8.76209 -1.07858 -28.6749 -36.3414 14.7136 -106.362 -5.74874 -0.315471 1.53676 -88.8525 -50.318 80.7311 -11.9245 4.67388 30.5855 41.3044 -28.9933 -114.24 -1.20081 -0.0570296 -1.56283 33.8981 -6.04877 10.0291 5.08324 -10.4065 -6.29845 
-77.651 81.5496 12.485 -73.96 31.6522 -111.788 -176.234 55.6164 95.2388 -110.173 18.9375 7.186 72.6965 8.63758 9.82116 28.067 2.57302 -8.9242 172.882 2.65381 94.885 -48.2522 3.57325 3.06862 101.6 -13.9423 3.68171 25.4072 -3.17728 8.24386 2.22424 8.4348 -88.7409 9.95911 5.005 2.08939 -1.70352 5.09205 1.86664 -24.2824 4.14574 3.49838 -4.26975 4.14572 3.49837 89.5211 -37.3106 -104.905 8.67471 5.12191 -34.2912 -35.4053 14.6612 -109.3 -6.06268 -0.37486 2.4162 -86.9597 -49.2772 83.3849 -18.0481 6.55739 37.73 40.2781 -30.6237 -115.113 -0.229866 -0.051558 -2.2634 34.4993 -7.49603 9.22622 4.87981 -11.423 -5.91292 
-84.2487 83.3784 9.7392 -72.9768 33.7057 -114.109 -175.591 59.4473 92.9931 -102.241 17.3615 6.01076 75.6953 9.20897 6.06263 28.3345 2.77519 -9.33096 172.8 -3.00257 91.0453 -41.2611 2.32398 1.10377 93.1168 -11.2954 3.10277 29.4659 -3.71235 13.3947 2.68494 8.414 -88.5042 9.98161 6.03073 2.474 -1.67716 6.13375 2.20539 -24.2768 5.0085 4.17459 -4.26416 5.00848 4.17458 90.5171 -35.315 -103.743 11.0501 10.4403 -36.6777 -33.8077 14.9552 -114.112 -6.92345 -0.483764 3.38095 -86.246 -47.8814 84.2444 -23.6472 8.69109 42.7783 41.3062 -32.1665 -113.77 -0.050426 -0.0620766 -2.97029 33.737 -10.1147 8.42347 6.31539 -13.3731 -3.87153 
-91.2047 85.19 6.32556 -72.4333 34.774 -115.969 -174.265 60.6653 90.2151 -91.9908 16.239 4.29811 79.9082 10.8942 4.76968 27.4204 2.46796 -9.19114 171.835 -9.2795 87.2203 -31.5945 -3.00293 -0.513061 80.0914 -8.07749 -1.34621 32.14 -3.26424 14.5145 3.08805 8.40141 -88.1988 9.97951 6.97275 3.00352 -1.67544 7.09812 2.69254 -24.2929 5.74804 4.96375 -4.28025 5.74804 4.96375 91.6181 -33.795 -102.162 13.2343 13.3103 -35.8715 -32.6435 15.8299 -118.773 -7.89458 -0.613896 4.33699 -86.3801 -45.5487 83.6494 -26.0751 8.30296 45.9715 43.1595 -33.4681 -113.194 0.975281 -0.0385188 -2.5421 36.0761 -12.5273 6.9369 3.20439 -14.9846 -3.02182 
-98.0602 86.9073 2.62973 -71.5963 35.4677 -117.646 -173.995 60.1418 88.7176 -80.0988 17.0932 2.50315 81.1292 10.863 2.70542 27.4575 1.57242 -6.35653 171.466 -12.7614 84.8217 -26.5136 -6.3559 -2.17695 66.9185 -3.55986 -2.67263 29.5309 -3.35563 12.0759 3.41315 8.36889 -87.8764 10.0138 7.76741 3.57446 -1.63783 7.91709 3.22758 -24.268 6.33481 5.7477 -4.25532 6.33481 5.7477 92.9243 -32.0314 -100.18 16.1955 14.5022 -34.562 -32.4898 17.2132 -122.437 -7.76196 -0.683451 5.56953 -86.9958 -43.4167 82.2759 -26.5271 7.37955 47.2706 42.9494 -33.8413 -114.036 0.903784 -0.04903 -2.86515 38.6341 -14.8494 5.42954 0.466178 -16.4966 -2.104 
-104.872 87.9441 -1.11708 -70.293 35.1111 -119.754 -173.833 58.8597 86.8154 -68.0951 18.6892 0.615387 79.0898 9.45892 1.30283 29.5285 1.21394 -2.99955 172.195 -13.2042 83.8375 -28.0394 -4.43902 -3.90751 62.3074 -1.99956 -1.01788 15.9813 -3.4364 3.66256 3.48798 8.25797 -87.5218 10.2028 8.08017 4.23552 -1.44865 8.25858 3.87424 -24.0682 6.43543 6.47078 -4.0556 6.43543 6.47078 93.4613 -31.1886 -99.3601 17.7629 14.3461 -32.8746 -31.5474 17.9063 -124.705 -8.22169 -0.792725 6.59037 -87.8198 -42.3304 80.719 -24.6278 6.42939 46.4664 41.1907 -33.5773 -116.316 2.66322 -0.0128808 -2.51294 39.6249 -16.7962 2.94347 0.0336511 -17.1456 -0.445013 
-111.168 88.1056 -4.94414 -69.8823 34.8689 -119.289 -174.264 56.0991 87.2304 -57.9776 18.1053 -0.847233 78.0267 7.99565 -1.49591 32.0257 0.698121 1.86853 174.602 -12.362 86.7196 -36.0278 -1.09439 -4.69405 64.7618 -2.80906 -2.49052 18.3598 -3.25057 4.11513 3.39027 8.17672 -87.4505 10.3612 7.92023 4.3765 -1.29172 8.105 4.02231 -23.8996 6.24085 6.55619 -3.88694 6.24091 6.5562 92.9226 -33.1978 -99.8581 16.6433 12.3359 -30.627 -29.2553 17.5711 -125.667 -10.989 -1.08686 6.73812 -88.6726 -43.9718 79.6924 -20.5279 6.21286 42.8477 39.7481 -33.533 -118.586 3.90817 0.0281686 -2.09311 41.7917 -18.068 0.206481 0.058355 -16.9861 1.34363 
